<svg width="19" height="19" viewBox="0 0 19 19" fill="none" xmlns="http://www.w3.org/2000/svg">
<path d="M10.1038 11.0019V12.7317C9.50298 12.5486 8.85655 12.449 8.18303 12.449C5.00062 12.449 2.42076 14.6729 2.42076 17.4162H0.5C0.5 13.7585 3.93981 10.7933 8.18303 10.7933C8.84627 10.7933 9.48992 10.8657 10.1038 11.0019ZM8.18303 9.96542C4.99938 9.96542 2.42076 7.74259 2.42076 4.99821C2.42076 2.25383 4.99938 0.0310059 8.18303 0.0310059C11.3667 0.0310059 13.9453 2.25383 13.9453 4.99821C13.9453 7.74259 11.3667 9.96542 8.18303 9.96542ZM8.18303 8.30968C10.3055 8.30968 12.0245 6.8278 12.0245 4.99821C12.0245 3.16862 10.3055 1.68674 8.18303 1.68674C6.06059 1.68674 4.34152 3.16862 4.34152 4.99821C4.34152 6.8278 6.06059 8.30968 8.18303 8.30968ZM13.7464 15.6895L17.1418 12.7625L18.5 13.9333L13.7464 18.031L10.351 15.1041L11.7092 13.9333L13.7464 15.6895Z" fill="black"/>
</svg>
