<svg width="16" height="16" viewBox="0 0 16 16" fill="none" xmlns="http://www.w3.org/2000/svg">
<path d="M12.1816 2.91599L12.5638 2.53377L12.5638 2.53377L12.1816 2.91599ZM8.39783 1.34572L8.40023 0.805179L8.39899 0.805176L8.39783 1.34572ZM13.7393 6.68085L13.1987 6.67843V6.68085H13.7393ZM13.7393 6.71238L14.2798 6.72309V6.71238H13.7393ZM11.2924 11.7574L11.6793 12.1349L11.6799 12.1343L11.2924 11.7574ZM8.78252 13.8007L8.49293 13.3442L8.46164 13.3641L8.43336 13.388L8.78252 13.8007ZM7.93117 13.8007L8.28032 13.388L8.25449 13.3662L8.22613 13.3477L7.93117 13.8007ZM4.40594 10.5151L4.83813 10.1904L4.83663 10.1884L4.40594 10.5151ZM3.01855 6.63671L2.47802 6.63438L2.47797 6.64524L2.47836 6.65609L3.01855 6.63671ZM9.59004 7.96789L9.96838 8.35395L9.96854 8.3538L9.59004 7.96789ZM8.37923 8.44717L8.37193 8.98771H8.37923V8.44717ZM12.5638 2.53377C11.466 1.43594 9.96707 0.812113 8.40023 0.80518L8.39544 1.88625C9.67905 1.89193 10.9044 2.40324 11.7994 3.29821L12.5638 2.53377ZM14.2798 6.68327C14.2868 5.1313 13.6675 3.63739 12.5638 2.53377L11.7994 3.29821C12.7012 4.19999 13.2044 5.41779 13.1987 6.67843L14.2798 6.68327ZM14.2798 6.71238V6.68085H13.1987V6.71238H14.2798ZM11.6799 12.1343C13.0638 10.7112 14.238 8.82755 14.2797 6.72308L13.1988 6.70168C13.1648 8.41883 12.1949 10.0541 10.9049 11.3806L11.6799 12.1343ZM9.07211 14.2571C10.0234 13.6535 10.8946 12.9393 11.6793 12.1349L10.9055 11.38C10.1767 12.127 9.37042 12.7875 8.49293 13.3442L9.07211 14.2571ZM7.58201 14.2133C8.02949 14.592 8.68419 14.592 9.13168 14.2133L8.43336 13.388C8.38895 13.4256 8.32473 13.4256 8.28032 13.388L7.58201 14.2133ZM3.97376 10.8397C4.98388 12.1844 6.22896 13.3373 7.63621 14.2536L8.22613 13.3477C6.92167 12.4983 5.77034 11.4314 4.83812 10.1904L3.97376 10.8397ZM2.47836 6.65609C2.53285 8.17489 3.05739 9.6315 3.97526 10.8417L4.83663 10.1884C4.05179 9.15362 3.60516 7.91114 3.55875 6.61733L2.47836 6.65609ZM8.39899 0.805176C5.14872 0.798246 2.49194 3.39844 2.47802 6.63438L3.55909 6.63903C3.5704 4.01011 5.73163 1.88057 8.39668 1.88626L8.39899 0.805176ZM9.21171 7.58183C9.001 7.78832 8.70951 7.90663 8.39815 7.90663V8.98771C8.98229 8.98771 9.54846 8.76547 9.96838 8.35395L9.21171 7.58183ZM9.56095 6.76969C9.56095 7.06803 9.43935 7.35856 9.21155 7.58198L9.96854 8.3538C10.3966 7.93398 10.642 7.36811 10.642 6.76969H9.56095ZM8.39815 5.62645C9.0461 5.62645 9.56095 6.14169 9.56095 6.76969H10.642C10.642 5.53103 9.62948 4.54537 8.39815 4.54537V5.62645ZM7.2423 6.76969C7.2423 6.13883 7.75309 5.62645 8.39815 5.62645V4.54537C7.16393 4.54537 6.16122 5.53389 6.16122 6.76969H7.2423ZM8.38654 7.90668C7.74187 7.89796 7.2423 7.38841 7.2423 6.76969H6.16122C6.16122 7.99367 7.14994 8.97114 8.37193 8.98766L8.38654 7.90668ZM8.39815 7.90663H8.37923V8.98771H8.39815V7.90663Z" fill="white"/>
</svg>
