<svg width="16" height="16" viewBox="0 0 16 16" fill="none" xmlns="http://www.w3.org/2000/svg">
<path fill-rule="evenodd" clip-rule="evenodd" d="M3.74347 11.4704C3.78752 11.4132 3.84465 11.3667 3.91033 11.3348C3.976 11.3028 4.04842 11.2861 4.12185 11.2861H6.48671C6.61215 11.2861 6.73245 11.3347 6.82115 11.4211C6.90985 11.5074 6.95968 11.6246 6.95968 11.7468C6.95968 11.869 6.90985 11.9861 6.82115 12.0725C6.73245 12.1589 6.61215 12.2074 6.48671 12.2074H4.35833L2.22995 14.9714H14.5273L12.3989 12.2074H10.2705C10.1451 12.2074 10.0248 12.1589 9.93605 12.0725C9.84735 11.9861 9.79752 11.869 9.79752 11.7468C9.79752 11.6246 9.84735 11.5074 9.93605 11.4211C10.0248 11.3347 10.1451 11.2861 10.2705 11.2861H12.6354C12.7088 11.2861 12.7812 11.3028 12.8469 11.3348C12.9126 11.3667 12.9697 11.4132 13.0137 11.4704L15.8516 15.1556C15.9043 15.2241 15.9364 15.3054 15.9443 15.3906C15.9521 15.4759 15.9355 15.5615 15.8962 15.638C15.857 15.7145 15.7966 15.7789 15.7219 15.8239C15.6471 15.8689 15.561 15.8927 15.4732 15.8927H1.28401C1.19617 15.8927 1.11007 15.8689 1.03535 15.8239C0.960633 15.7789 0.90025 15.7145 0.860968 15.638C0.821687 15.5615 0.805058 15.4759 0.812947 15.3906C0.820835 15.3054 0.852928 15.2241 0.90563 15.1556L3.74347 11.4704Z" fill="#F4F4F4"/>
<path fill-rule="evenodd" clip-rule="evenodd" d="M4.41309 4.29392C4.41316 3.61321 4.62834 2.94698 5.0328 2.37517C5.43727 1.80336 6.01385 1.35026 6.69335 1.07024C7.37285 0.790215 8.12641 0.695163 8.8636 0.796489C9.6008 0.897815 10.2903 1.19121 10.8494 1.64148C11.4085 2.09175 11.8135 2.67976 12.0156 3.33495C12.2178 3.99014 12.2087 4.68469 11.9893 5.33525C11.7699 5.9858 11.3495 6.56474 10.7787 7.00258C10.2079 7.44043 9.51085 7.71858 8.77119 7.80367V12.6947C8.77119 12.8119 8.72018 12.9244 8.62936 13.0073C8.53855 13.0902 8.41539 13.1368 8.28696 13.1368C8.15853 13.1368 8.03537 13.0902 7.94455 13.0073C7.85374 12.9244 7.80272 12.8119 7.80272 12.6947V7.80455C6.86618 7.69681 6.00495 7.28055 5.38079 6.63396C4.75664 5.98736 4.41253 5.15493 4.41309 4.29303V4.29392Z" fill="#F4F4F4"/>
</svg>
