<svg width="21" height="21" viewBox="0 0 21 21" fill="none" xmlns="http://www.w3.org/2000/svg">
<path d="M5.32341 4.84361L8.78432 1.20628C8.95025 1.03271 8.95025 0.751727 8.78432 0.578606C8.61882 0.405041 8.34997 0.405041 8.18446 0.578606L4.7265 4.21283L1.23659 0.52445C1.07108 0.349109 0.802238 0.349109 0.636731 0.52445C0.471226 0.700234 0.471226 0.984773 0.636731 1.16011L4.12411 4.84583L0.62413 8.52397C0.458623 8.69753 0.458623 8.97853 0.62413 9.15164C0.789635 9.32523 1.05848 9.32523 1.22398 9.15164L4.72102 5.47661L8.19706 9.15031C8.36257 9.32568 8.63141 9.32568 8.79692 9.15031C8.96243 8.97453 8.96243 8.69001 8.79692 8.51464L5.32341 4.84361Z" fill="#865CD0"/>
<path d="M16.4949 1.39153L16.2896 1.0163L16.0844 1.39153L12.438 8.0582L12.2486 8.40438H12.6432H19.9361H20.3306L20.1413 8.0582L16.4949 1.39153Z" fill="#865CD0" stroke="white" stroke-width="0.467857"/>
<rect x="0.266071" y="11.2699" width="8.88891" height="9.35675" fill="#865CD0" stroke="white" stroke-width="0.467857"/>
<path d="M16.2896 20.6266C18.756 20.6266 20.7341 18.5199 20.7341 15.9482C20.7341 13.3765 18.756 11.2699 16.2896 11.2699C13.8233 11.2699 11.8452 13.3765 11.8452 15.9482C11.8452 18.5199 13.8233 20.6266 16.2896 20.6266Z" fill="#865CD0" stroke="white" stroke-width="0.467857"/>
</svg>
