<svg width="18" height="19" viewBox="0 0 18 19" fill="none" xmlns="http://www.w3.org/2000/svg">
<rect y="0.571426" width="18" height="18" rx="9" fill="#865CD0"/>
<path d="M7.72521 10.0676C7.69198 10.0955 7.65215 10.1337 7.62788 10.1539C7.35862 10.3778 7.08053 10.5891 6.7936 10.7876C6.73908 10.8253 6.68009 10.8608 6.62146 10.8947C6.61723 10.8972 6.61669 10.9003 6.61984 10.9041C7.17794 11.5685 7.89461 12.1162 8.60157 12.595C9.05553 12.9025 9.52041 13.1913 9.9962 13.4615C9.99752 13.4623 9.99851 13.4636 9.99896 13.4651C9.9994 13.4666 9.99926 13.4682 9.99856 13.4696L9.43635 14.5608C9.43445 14.5644 9.43154 14.5665 9.42764 14.567C9.38445 14.5734 9.34276 14.5779 9.30542 14.548C8.74748 14.1004 8.20706 13.631 7.68414 13.1397C7.04128 12.5357 6.45343 11.906 5.93678 11.2004C5.66918 10.8349 5.41976 10.4225 5.26256 9.99114C5.1834 9.774 5.13635 9.53973 5.1997 9.31272C5.31583 8.89612 5.7583 8.81378 6.11004 8.81171C6.40776 8.80997 6.70519 8.81967 7.00232 8.8408C7.00656 8.84106 7.00954 8.83919 7.01129 8.83521C7.17508 8.45367 7.20134 7.99564 7.20284 7.58358C7.20408 7.22463 7.18516 6.86642 7.14608 6.50895C7.1459 6.5074 7.14519 6.50598 7.14409 6.50495C7.14299 6.50392 7.14157 6.50336 7.14011 6.50336H4.40176C4.39736 6.50336 4.39417 6.50129 4.39218 6.49713L4.00136 5.67431C3.9992 5.66972 3.99961 5.66539 4.0026 5.66132L4.06247 5.57808C4.06537 5.5741 4.06919 5.57211 4.07392 5.57211L12.5985 5.57172C12.6025 5.57172 12.6054 5.57358 12.6072 5.5773L12.9988 6.4022C13.0007 6.40618 13.0004 6.40995 12.9978 6.4135L12.9354 6.49908C12.9334 6.50194 12.9306 6.50336 12.9272 6.50336H8.05803C8.05696 6.50337 8.0559 6.50362 8.05493 6.50408C8.05396 6.50455 8.05309 6.50522 8.0524 6.50606C8.0517 6.5069 8.05119 6.50788 8.05089 6.50894C8.0506 6.51 8.05053 6.51111 8.05069 6.51219C8.13172 7.10139 8.15014 7.7076 8.13408 8.30212C8.13391 8.30766 8.13578 8.30857 8.13968 8.30484C8.51656 7.94291 8.98691 7.76318 9.49871 7.815C10.6453 7.93122 11.4092 9.01611 11.95 9.95516C12.208 10.4032 12.4496 10.8607 12.6748 11.3276C12.6767 11.3314 12.676 11.3345 12.6726 11.3368C12.5342 11.434 12.396 11.5315 12.258 11.6292C12.2383 11.6431 12.2172 11.647 12.1946 11.6411C12.1905 11.6399 12.1876 11.6374 12.1858 11.6334C11.9081 11.0164 11.6406 10.4707 11.3058 9.96179C10.9442 9.4122 10.4728 8.92066 9.80577 8.84261C9.23933 8.77625 8.5646 8.98663 8.38226 9.62206C8.24473 10.1014 8.48557 10.566 8.99737 10.5698C9.52659 10.5738 9.86974 10.1344 10.0688 9.6779C10.0707 9.67366 10.0734 9.67292 10.0768 9.67569L10.7842 10.2432C10.7877 10.246 10.7891 10.2497 10.7882 10.2542C10.6831 10.805 10.2238 11.2363 9.72897 11.3872C9.141 11.5665 8.49441 11.2237 8.10545 10.7685C7.92855 10.5615 7.80458 10.3288 7.73355 10.0705C7.73206 10.0651 7.72928 10.0642 7.72521 10.0676Z" fill="white"/>
</svg>
